<?xml version="1.0" encoding="UTF-8" standalone="no"?>
<svg
   xmlns:dc="http://purl.org/dc/elements/1.1/"
   xmlns:cc="http://creativecommons.org/ns#"
   xmlns:rdf="http://www.w3.org/1999/02/22-rdf-syntax-ns#"
   xmlns:svg="http://www.w3.org/2000/svg"
   xmlns="http://www.w3.org/2000/svg"
   xmlns:sodipodi="http://sodipodi.sourceforge.net/DTD/sodipodi-0.dtd"
   xmlns:inkscape="http://www.inkscape.org/namespaces/inkscape"
   inkscape:export-ydpi="27.139069"
   inkscape:export-xdpi="27.139069"
   inkscape:export-filename="C:\Users\Alain\source\repos\OpenAIP\OpenAIP\Plane_icon.png"
   inkscape:output_extension="org.inkscape.output.svg.inkscape"
   sodipodi:docname="Plane_icon.svg"
   inkscape:version="1.0 (4035a4fb49, 2020-05-01)"
   sodipodi:version="0.32"
   id="svg2"
   height="228.24998"
   width="238.45445"
   version="1.0">
  <metadata
     id="metadata9">
    <rdf:RDF>
      <cc:Work
         rdf:about="">
        <dc:format>image/svg+xml</dc:format>
        <dc:type
           rdf:resource="http://purl.org/dc/dcmitype/StillImage" />
        <dc:title></dc:title>
      </cc:Work>
    </rdf:RDF>
  </metadata>
  <sodipodi:namedview
     inkscape:window-maximized="0"
     inkscape:guide-bbox="true"
     showguides="true"
     inkscape:document-rotation="0"
     inkscape:current-layer="svg2"
     inkscape:window-y="26"
     inkscape:window-x="241"
     inkscape:cy="198.44559"
     inkscape:cx="170.95232"
     inkscape:zoom="2"
     showgrid="false"
     id="base"
     pagecolor="#ffffff"
     bordercolor="#666666"
     borderopacity="1.0"
     objecttolerance="10.0"
     gridtolerance="10.0"
     guidetolerance="10.0"
     inkscape:pageopacity="0.0"
     inkscape:pageshadow="2"
     inkscape:window-width="1855"
     inkscape:window-height="1134" />
  <defs
     id="defs11">
    <inkscape:perspective
       id="perspective11"
       inkscape:persp3d-origin="376.56 : 223.84001 : 1"
       inkscape:vp_z="753.12 : 335.76001 : 1"
       inkscape:vp_y="0 : 1000 : 0"
       inkscape:vp_x="0 : 335.76001 : 1"
       sodipodi:type="inkscape:persp3d" />
  </defs>
  <path
     id="path5724"
     style="fill:#ffffff;fill-opacity:1;fill-rule:evenodd;stroke:#ffffff;stroke-width:9.86773;stroke-linecap:butt;stroke-linejoin:miter;stroke-miterlimit:4;stroke-dasharray:none;stroke-opacity:1"
     d="m 227.51608,136.40188 -93.3407,-69.360414 c 0.69022,-10.716034 1.13819,-34.644417 0.73344,-39.086213 -3.39306,-37.2347356 -26.87768,-21.1951117 -27.09466,-4.577215 -0.0594,4.545118 -0.87203,28.054074 -0.94835,43.74982 l -92.114418,70.983462 -0.24344,22.2207 95.093928,-43.45007 3.44038,69.09842 -27.574605,19.74196 -0.17462,14.54145 36.378345,-9.98114 0.008,0.12006 36.7592,9.39466 -0.43907,-14.52866 -27.93015,-19.27499 2.24355,-69.15074 95.83813,41.73895 z" />
  <path
     inkscape:export-ydpi="17.969999"
     inkscape:export-xdpi="17.969999"
     d="M 227.54994,136.80392 134.20925,67.443507 c 0.69022,-10.716034 1.13818,-34.64442 0.73344,-39.086213 -3.39306,-37.2347306 -26.87769,-21.1951136 -27.09467,-4.577218 -0.0594,4.545118 -0.87202,28.054077 -0.94835,43.749823 l -92.114407,70.983471 -0.243447,22.22069 95.093934,-43.45007 3.44037,69.09842 -27.574599,19.74197 -0.17462,14.54144 36.378349,-9.98114 0.008,0.12006 36.75921,9.39467 -0.43908,-14.52867 -27.93014,-19.27498 2.24354,-69.15075 95.83813,41.73895 z"
     style="fill:#008080;fill-opacity:1;fill-rule:evenodd;stroke:none;stroke-width:0.860596px;stroke-linecap:butt;stroke-linejoin:miter;stroke-opacity:1"
     id="path18" />
</svg>
